<?xml version="1.0" encoding="UTF-8" standalone="no"?>
<!-- Generator: Adobe Illustrator 16.0.0, SVG Export Plug-In . SVG Version: 6.00 Build 0)  -->

<svg
   xmlns:dc="http://purl.org/dc/elements/1.1/"
   xmlns:cc="http://creativecommons.org/ns#"
   xmlns:rdf="http://www.w3.org/1999/02/22-rdf-syntax-ns#"
   xmlns:svg="http://www.w3.org/2000/svg"
   xmlns="http://www.w3.org/2000/svg"
   xmlns:xlink="http://www.w3.org/1999/xlink"
   xmlns:sodipodi="http://sodipodi.sourceforge.net/DTD/sodipodi-0.dtd"
   xmlns:inkscape="http://www.inkscape.org/namespaces/inkscape"
   version="1.1"
   x="0px"
   y="0px"
   width="1024px"
   height="1024px"
   viewBox="0 0 1024 1024"
   enable-background="new 0 0 1024 1024"
   xml:space="preserve"
   id="svg2"
   inkscape:version="0.92.4 (5da689c313, 2019-01-14)"
   sodipodi:docname="excellent_logo__quake_iii_by_betoheavy-d61yguq.svg"
   inkscape:export-filename="C:\Users\admin\Documents\et\gtv\static\excellent_logo__quake_iii_by_betoheavy-d61yguq.svg.png"
   inkscape:export-xdpi="42.371391"
   inkscape:export-ydpi="42.371391"><metadata
   id="metadata20"><rdf:RDF><cc:Work
       rdf:about=""><dc:format>image/svg+xml</dc:format><dc:type
         rdf:resource="http://purl.org/dc/dcmitype/StillImage" /><dc:title></dc:title></cc:Work></rdf:RDF></metadata><defs
   id="defs18"><linearGradient
     id="linearGradient5430"><stop
       offset="0"
       style="stop-color:#df3323;stop-opacity:1"
       id="stop5432" /><stop
       offset="1"
       style="stop-color:#3d0000;stop-opacity:1"
       id="stop5434" /></linearGradient><linearGradient
     spreadMethod="pad"
     gradientTransform="translate(1142.2157,451.99046)"
     gradientUnits="userSpaceOnUse"
     xlink:href="#linearGradient5430"
     id="linearGradient5438"
     y2="150.06567"
     x2="134.5764"
     y1="2.2628517"
     x1="134.5764" /></defs><sodipodi:namedview
   pagecolor="#ffffff"
   bordercolor="#666666"
   borderopacity="1"
   objecttolerance="10"
   gridtolerance="10"
   guidetolerance="10"
   inkscape:pageopacity="0"
   inkscape:pageshadow="2"
   inkscape:window-width="1920"
   inkscape:window-height="1018"
   id="namedview16"
   showgrid="false"
   inkscape:zoom="0.44327735"
   inkscape:cx="531.74083"
   inkscape:cy="443.19317"
   inkscape:window-x="-8"
   inkscape:window-y="-8"
   inkscape:window-maximized="1"
   inkscape:current-layer="layer2"
   inkscape:pagecheckerboard="true"
   inkscape:snap-midpoints="false"
   inkscape:object-nodes="false"
   inkscape:snap-bbox="true"
   inkscape:bbox-nodes="true" />
<g
   id="Capa_1"
   display="none"
   style="display:none">
	<g
   id="Capa_2"
   display="inline"
   style="display:inline">
		<path
   d="m 461.727,367.281 -5.393,53.053 c 0,0 32.151,-7.942 57.409,-7.971 25.258,-0.029 60.592,7.971 60.592,7.971 l -8.577,-53.053 c 0,0 52.577,10.387 54.728,-32.219 2,-28 -61,-51.938 -79.25,-64.938 C 522.986,257.124 512.001,242 512.001,242 l -0.008,1.264 c -0.159,0.292 -7.688,14 -25.743,26.861 -18.25,13 -81.25,36.938 -79.25,64.938 0.667,45.938 54.727,32.218 54.727,32.218 z"
   id="path6"
   inkscape:connector-curvature="0"
   style="fill:#ffc100" />
		<path
   d="m 879.482,375 c 19,17 20,33 20,33 0,0 -21,22 -42,23 24,39 10,61 6,61 l -21,3 c 0,0 -2,48 -14,58 -12,10 -28,10 -28,10 l -9,26 c 0,0 23,5 27,11 4,6 4,30 -19,40 -2,37 -35,44 -35,44 0,0 -11,21 11,41 22,20 40,25 41,47 -36,11 -85.893,-63.526 -85.893,-63.526 l -29.443,-48.445 c 0,0 -10.663,-21.027 -5.663,-35.027 5,-14 20.456,-7.49 35.228,-18.745 C 745.482,595 745.482,586 744.482,569 c -1,-17 -16,-37 -16,-37 l -22.206,28.688 c 0,0 -26.793,24.313 -28.793,58.313 -2,34 10,63 12,85 2,22 6,47 6,47 0,0 19.066,4.116 16.677,17.725 -4.626,19.893 -27.66,49.775 -40.66,50.775 -24,2 -71.017,6.5 -71.017,6.5 l -6,55 c 0,0 -12.013,33.227 -71.49,36.72 l 0.004,0.45 c -2.755,-0.043 -5.846,-0.092 -9.255,-0.144 -3.411,0.052 -6.501,0.101 -9.256,0.144 l 0.003,-0.45 C 445.012,914.227 433,881 433,881 l -6,-55 c 0,0 -44.5,-2.5 -68.5,-4.5 -24,-2 -38.5,-28.5 -43.125,-48.392 C 313,760 332,751 332,751 c 0,0 4,-25 6,-47 2,-22 14,-51 12,-85 -2,-34 -28.793,-58.313 -28.793,-58.313 L 299,532 c 0,0 -15,20 -16,37 -1,17 -1,26 13.772,37.255 C 311.544,617.51 327,611 332,625 c 5,14 -5.664,35.027 -5.664,35.027 l -29.444,48.445 c 0,0 -49.893,74.526 -85.893,63.526 1,-22 19,-27 41,-47 22,-20 11,-41 11,-41 0,0 -33,-7 -35,-44 -23,-10 -23,-34 -19,-40 4,-6 27,-11 27,-11 l -9,-26 c 0,0 -16,0 -28,-10 -12,-10 -14,-58 -14,-58 l -21,-3 c -4,0 -18,-22 6,-61 -21,-1 -42,-23 -42,-23 0,0 1,-16 20,-33 -28,-19 -29,-40.999 -29,-40.999 0,0 15.999,-11.999 29.999,-18.999 -29,-2 -30.001,-63.335 -30.001,-63.335 0,0 34.997,11.341 48.997,6.341 -53,-60 -33.005,-78.992 -33.005,-78.992 0,0 31.988,13.016 58.988,33.016 -41,-96 -6.023,-95.969 -0.023,-93.969 6,2 121.954,130.063 129.954,147.063 8,17 -7.501,124.192 -7.091,105.125 0.409,-19.067 -8.184,78.25 39.816,133.25 C 405.742,449.034 491,442.005 508,441.124 V 441 h 3.75 3.983 3.267 v 0.124 c 18,0.881 102.5,7.911 151.607,62.376 48,-55 39.527,-152.317 39.938,-133.25 0.411,19.067 -15.031,-88.125 -7.031,-105.125 8,-17 123.984,-145.063 129.984,-147.063 6,-2 40.992,-2.031 -0.008,93.969 27,-20 58.996,-33.016 58.996,-33.016 0,0 19.998,18.992 -33.002,78.992 14,5 48.998,-16.008 48.998,-16.008 0,0 -1,71.002 -30,73.002 14,7 30,18.999 30,18.999 0,0 -1,22 -29,41 z m -366.575,366.891 -0.451,0.726 -0.456,-0.726 c 0,0 -10.336,8.396 -19.935,20.3 -8.563,10.616 -14.204,23.414 -13.732,36.144 1,27 14.667,25.64 20.667,24.64 4.492,-0.749 9.545,-7.095 11.801,-10.236 l 1.605,-1.325 3.194,3.332 c 2.564,3.283 6.57,7.619 10.236,8.229 6,1 17.829,4.027 18.829,-22.973 0.482,-13.018 -3.664,-27.801 -12.433,-38.528 -9.415,-11.524 -19.325,-19.583 -19.325,-19.583 z M 469,670 c -10.564,-9.508 -47,-10 -61,-10 -26,0 -41,25.615 -43,46.615 -2,21 12,49.385 48.5,46.385 36.5,-3 42.5,-11 55.5,-21 13,-10 20,-44 0,-62 z m 190.814,36.615 c -2,-21 -17,-46.615 -43,-46.615 -14,0 -50.437,0.492 -61,10 -20,18 -13,52 0,62 13,10 19,18 55.5,21 36.5,3 50.5,-25.385 48.5,-46.385 z m -78,73.385 c -8,22 0,26 0,26 l 7,-18 c 0,0 28,2 41,-8 0,0 -38,3 -48,0 z M 395,780 c 13,10 41,8 41,8 l 7,18 c 0,0 8,-4 0,-26 -10,3 -48,0 -48,0 z"
   id="path8"
   inkscape:connector-curvature="0"
   style="fill:#ffc100" />
	</g>
	<g
   id="Capa_1_1_">
		
			<image
   sodipodi:absref="C:\Users\admin\Documents\et\gtv\static\DCE2ADC0.jpeg"
   xlink:href="DCE2ADC0.jpeg"
   style="display:inline;overflow:visible;opacity:0.4"
   display="inline"
   overflow="visible"
   enable-background="new    "
   width="64"
   height="64"
   transform="matrix(13.6089,0,0,13.6089,76.5156,87.042)"
   id="image11">
		</image>
	</g>
</g>

<g
   inkscape:groupmode="layer"
   id="layer1"
   inkscape:label="Layer"
   style="display:inline" /><g
   inkscape:groupmode="layer"
   id="layer3"
   inkscape:label="export" /><g
   inkscape:groupmode="layer"
   id="layer2"
   inkscape:label="Layer#1"
   style="display:inline"><image
     sodipodi:absref="C:\Users\admin\Documents\et\gtv\static\return_to_castle_wolfenstein___logo_by_lelekhd_d6gsbzn.png"
     xlink:href="return_to_castle_wolfenstein___logo_by_lelekhd_d6gsbzn.png"
     style="display:none"
     width="1963.0292"
     height="1187.5599"
     id="image3005"
     x="-461.00824"
     y="43.36956" /><g
     id="Capa_2_1_">
	
</g><g
     id="g83"
     transform="matrix(5.6828452,0,0,5.6828452,809.27596,-534.50584)"
     style="display:inline"><path
       id="path4657"
       transform="matrix(0.80000147,0,0,0.80000147,-1073.7868,-228.91009)"
       style="color:#000000;font-style:normal;font-variant:normal;font-weight:normal;font-stretch:normal;font-size:medium;line-height:normal;font-family:Sans;-inkscape-font-specification:Sans;text-indent:0;text-align:start;text-decoration:none;text-decoration-line:none;letter-spacing:normal;word-spacing:normal;text-transform:none;writing-mode:lr-tb;direction:ltr;baseline-shift:baseline;text-anchor:start;display:inline;overflow:visible;visibility:visible;opacity:1;fill:url(#linearGradient5438);fill-opacity:1;stroke:none;stroke-width:5.00000048;marker:none;enable-background:accumulate"
       d="m 1309.7148,457.30273 c -2.354,0.26307 -5.7749,0.67194 -10.0937,1.375 -3.3126,0.53927 -6.7018,1.18047 -9.4375,1.90625 -2.7357,0.7258 -4.9151,1.85263 -4.9688,1.90625 -0.3661,0.36612 -1.1845,2.54176 -1.4687,4.53125 -0.093,0.64878 -0.051,0.67768 -0.094,1.21875 0.1505,0.002 0.7904,0.002 1.7188,0.1875 1.0327,0.20654 2.3795,0.59824 3.5937,1.8125 1.2143,1.21425 1.606,2.56108 1.8125,3.59375 0.2067,1.03269 0.1875,1.90625 0.1875,1.90625 v 23.75 h 85.2188 l 8.75,-8.75 h -40.2188 l -5,-5 h 50.2188 l 10,-10 h -85.2188 l 11.25,11.25 h -16.25 z m -65,0 v 29.6875 h -16.25 l 11.25,-11.25 h -85.2187 l 10,10 h 50.2187 l -5,5 h -40.2187 l 8.75,8.75 h 85.2187 v -23.75 c 0,0 -0.019,-0.87356 0.1875,-1.90625 0.2066,-1.03267 0.5983,-2.3795 1.8125,-3.59375 1.2143,-1.21426 2.5611,-1.60596 3.5938,-1.8125 0.877,-0.175 1.6875,-0.1875 1.6875,-0.1875 0,0 0.03,-0.56997 -0.062,-1.21875 -0.2842,-1.98949 -1.1026,-4.16513 -1.4688,-4.53125 -0.054,-0.0536 -2.233,-1.18045 -4.9687,-1.90625 -2.7357,-0.72578 -6.1249,-1.36698 -9.4375,-1.90625 -4.3188,-0.70306 -7.7398,-1.11193 -10.0938,-1.375 z m 51.7322,47.18745 c -8.0907,-3.04958 -15.7365,-3.65573 -17.9795,-3.77197 l -1.2528,-0.009 -1.2523,0.0271 c -2.2387,0.11601 -9.8592,0.71961 -17.9327,3.75392 -24.9279,0 -49.8559,0 -74.7838,0 l 10,10.00001 h 11.7984 c 0.2636,3.14224 1.014,9.24065 2.9501,10.85407 2.6395,2.1996 5.7194,1.32019 5.7194,1.32019 l 2.5106,6.86258 c 0,0 -5.1506,0.83559 -6.0304,2.15535 -0.8798,1.31976 -0.8798,6.59879 4.1792,8.79839 0.44,8.13851 7.6986,9.67823 7.6986,9.67823 0,0 2.4196,4.61916 -2.4195,9.01836 -4.8391,4.39919 -8.7984,5.49899 -9.0184,10.33811 7.9186,2.41956 18.8934,-13.97304 18.8934,-13.97304 l 6.4763,-10.65602 c 0,0 2.3457,-4.62517 1.2459,-7.70461 -1.0998,-3.07944 -4.4996,-1.64731 -7.7489,-4.12296 -3.2492,-2.47564 -3.2491,-4.45547 -3.0291,-8.19479 0.2199,-3.73932 3.5193,-8.13851 3.5193,-8.13851 l 4.8847,6.3101 c 0,0 5.8933,5.34777 6.3333,12.8264 0.4399,7.47864 -2.1996,13.85747 -2.6395,18.69659 -0.44,4.83912 -1.3198,10.33811 -1.3198,10.33811 0,0 -4.1792,1.97951 -3.6568,4.86275 1.0173,4.37544 4.2067,10.2045 9.4857,10.64442 5.2791,0.43992 15.0673,0.98982 15.0673,0.98982 l 1.3197,12.09779 c 0,0 2.642,7.30854 15.7246,8.07708 0,0 1.2648,0.0606 2.0144,0.0494 0.7501,0.0114 2.0351,-0.0674 2.0351,-0.0674 13.0828,-0.76854 15.725,-8.07708 15.725,-8.07708 l 1.3197,-12.09779 c 0,0 9.7882,-0.5499 15.0673,-0.98982 5.279,-0.43992 8.4684,-6.26921 9.4857,-10.64443 0.5224,-2.88345 -3.6568,-4.86274 -3.6568,-4.86274 0,0 -0.8798,-5.499 -1.3198,-10.33811 -0.4399,-4.83912 -3.0794,-11.21796 -2.6395,-18.69659 0.4399,-7.47863 6.3333,-12.82684 6.3333,-12.82684 l 4.8847,-6.31009 c 0,0 3.2994,4.39919 3.5193,8.13851 0.22,3.73932 0.2197,5.71892 -3.0296,8.19479 -3.2494,2.47543 -6.6486,1.04352 -7.7484,4.12296 -1.0998,3.07944 1.2459,7.70461 1.2459,7.70461 l 6.4759,10.65602 c 0,0 10.9748,16.39259 18.8933,13.97303 -0.2199,-4.83911 -4.1792,-5.93891 -9.0183,-10.33811 -4.8391,-4.39919 -2.4196,-9.01835 -2.4196,-9.01835 0,0 7.2587,-1.53972 7.6986,-9.67823 5.0591,-2.1996 5.0591,-7.47864 4.1793,-8.7984 -0.8799,-1.31976 -6.0305,-2.15535 -6.0305,-2.15535 l 2.5111,-6.863 c 0,0 3.0794,0.87984 5.719,-1.31976 1.9324,-1.61038 2.6838,-7.68813 2.9488,-10.8356 h 11.7996 l 10.0001,-10.00001 z m 4.0169,44.37174 c 5.7189,0 9.0183,5.63433 9.4583,10.25348 0.4399,4.61916 -2.6396,10.86267 -10.6681,10.20279 -8.0285,-0.65988 -9.3483,-2.41956 -12.2078,-4.61916 -2.8594,-2.1996 -4.3992,-9.67823 0,-13.63751 2.3237,-2.09138 10.3381,-2.1996 13.4176,-2.1996 z m -46.4975,0.0185 c 3.0795,0 11.0939,0.10822 13.4176,2.19959 4.3992,3.95928 2.8595,11.43792 0,13.63751 -2.8595,2.1996 -4.1792,3.95928 -12.2078,4.61916 -8.0285,0.65988 -11.108,-5.58363 -10.668,-10.20279 0.4399,-4.61915 3.7393,-10.25347 9.4582,-10.25347 z m 23.2483,17.75703 0.3729,0.23714 c 0,0 2.2735,1.84696 4.3846,4.46536 1.8833,2.33509 3.1246,5.15005 3.0206,7.94991 -0.22,5.93892 -3.2259,5.63991 -4.5457,5.41995 -0.988,-0.16497 -1.9233,-0.89779 -2.4195,-1.58912 l -0.5293,-0.95416 -0.2836,-0.40899 -0.2831,0.42746 -0.5293,0.95459 c -0.4962,0.69111 -1.4315,1.42395 -2.4195,1.5887 -1.3198,0.21995 -4.3262,0.51939 -4.5461,-5.41952 -0.1039,-2.80009 1.137,-5.61525 3.0205,-7.95035 2.1114,-2.6184 4.3851,-4.46536 4.3851,-4.46536 z m 15.5506,8.61967 c 2.1996,0.65988 10.5581,0 10.5581,0 -2.8595,2.1996 -9.0184,1.75968 -9.0184,1.75968 l -1.5397,3.95928 c 0,0 -1.7597,-0.87984 0,-5.71896 z m -41.6583,0.0185 c 0,0 8.3584,0.65988 10.558,0 1.7597,4.83911 0,5.71895 0,5.71895 l -1.5397,-3.95927 c 0,0 -6.1589,0.43992 -9.0183,-1.75968 z"
       inkscape:connector-curvature="0" /></g><path
     style="display:none;fill:#ffc100"
     d="m 513.646,412.28 c 25.258,0.029 57.41,7.971 57.41,7.971 l -5.393,-53.053 c 0,0 54.059,13.72 54.727,-32.219 2,-28 -61,-51.938 -79.25,-64.938 -18.055,-12.861 -25.584,-26.569 -25.744,-26.861 l -1.701,-2.806 -1.701,2.889 c -0.159,0.292 -7.688,14 -25.743,26.861 -18.25,13 -81.25,36.938 -79.25,64.938 0.667,45.938 54.727,32.219 54.727,32.219 l -5.393,53.053 c -10e-4,0 32.053,-8.025 57.311,-8.054 z"
     id="path4652"
     inkscape:connector-curvature="0" /><rect
     style="display:inline;opacity:0;fill:#000000;stroke:none;stroke-width:1.1403954"
     id="rect4730"
     width="1115.8278"
     height="674.28992"
     x="-44.220463"
     y="243.66188" /></g></svg>