<?xml version="1.0" encoding="UTF-8" standalone="no"?>
<!-- Generator: Adobe Illustrator 16.0.0, SVG Export Plug-In . SVG Version: 6.00 Build 0)  -->

<svg
   xmlns:dc="http://purl.org/dc/elements/1.1/"
   xmlns:cc="http://creativecommons.org/ns#"
   xmlns:rdf="http://www.w3.org/1999/02/22-rdf-syntax-ns#"
   xmlns:svg="http://www.w3.org/2000/svg"
   xmlns="http://www.w3.org/2000/svg"
   xmlns:xlink="http://www.w3.org/1999/xlink"
   xmlns:sodipodi="http://sodipodi.sourceforge.net/DTD/sodipodi-0.dtd"
   xmlns:inkscape="http://www.inkscape.org/namespaces/inkscape"
   version="1.1"
   x="0px"
   y="0px"
   width="1024px"
   height="1024px"
   viewBox="0 0 1024 1024"
   enable-background="new 0 0 1024 1024"
   xml:space="preserve"
   id="svg2"
   inkscape:version="0.92.4 (5da689c313, 2019-01-14)"
   sodipodi:docname="excellent_logo__quake_iii_by_betoheavy-d61yguq.svg"
   inkscape:export-filename="C:\Users\admin\Documents\et\gtv\static\excellent_logo__quake_iii_by_betoheavy-d61yguq.svg.png"
   inkscape:export-xdpi="61.125431"
   inkscape:export-ydpi="61.125431"><metadata
   id="metadata20"><rdf:RDF><cc:Work
       rdf:about=""><dc:format>image/svg+xml</dc:format><dc:type
         rdf:resource="http://purl.org/dc/dcmitype/StillImage" /></cc:Work></rdf:RDF></metadata><defs
   id="defs18"><linearGradient
     id="linearGradient5430"><stop
       offset="0"
       style="stop-color:#df3323;stop-opacity:1"
       id="stop5432" /><stop
       offset="1"
       style="stop-color:#3d0000;stop-opacity:1"
       id="stop5434" /></linearGradient><linearGradient
     spreadMethod="pad"
     gradientTransform="matrix(0.80000151,0,0,0.80000151,-160.01255,132.68294)"
     gradientUnits="userSpaceOnUse"
     xlink:href="#linearGradient5430"
     id="linearGradient5438"
     y2="150.06567"
     x2="134.5764"
     y1="2.2628517"
     x1="134.5764" /></defs><sodipodi:namedview
   pagecolor="#ffffff"
   bordercolor="#666666"
   borderopacity="1"
   objecttolerance="10"
   gridtolerance="10"
   guidetolerance="10"
   inkscape:pageopacity="0"
   inkscape:pageshadow="2"
   inkscape:window-width="1920"
   inkscape:window-height="1018"
   id="namedview16"
   showgrid="false"
   inkscape:zoom="2.6805416"
   inkscape:cx="1270.5935"
   inkscape:cy="485.32045"
   inkscape:window-x="-8"
   inkscape:window-y="-8"
   inkscape:window-maximized="1"
   inkscape:current-layer="g83" />
<g
   id="Capa_1"
   display="none">
	<g
   id="Capa_2"
   display="inline">
		<path
   fill="#FFC100"
   d="M461.727,367.281l-5.393,53.053c0,0,32.151-7.942,57.409-7.971c25.258-0.029,60.592,7.971,60.592,7.971    l-8.577-53.053c0,0,52.577,10.387,54.728-32.219c2-28-61-51.938-79.25-64.938S512.001,242,512.001,242l-0.008,1.264    c-0.159,0.292-7.688,14-25.743,26.861c-18.25,13-81.25,36.938-79.25,64.938C407.667,381.001,461.727,367.281,461.727,367.281z"
   id="path6" />
		<path
   fill="#FFC100"
   d="M879.482,375c19,17,20,33,20,33s-21,22-42,23c24,39,10,61,6,61l-21,3c0,0-2,48-14,58s-28,10-28,10l-9,26    c0,0,23,5,27,11s4,30-19,40c-2,37-35,44-35,44s-11,21,11,41s40,25,41,47c-36,11-85.893-63.526-85.893-63.526l-29.443-48.445    c0,0-10.663-21.027-5.663-35.027s20.456-7.49,35.228-18.745C745.482,595,745.482,586,744.482,569s-16-37-16-37l-22.206,28.688    c0,0-26.793,24.313-28.793,58.313s10,63,12,85s6,47,6,47s19.066,4.116,16.677,17.725c-4.626,19.893-27.66,49.775-40.66,50.775    c-24,2-71.017,6.5-71.017,6.5l-6,55c0,0-12.013,33.227-71.49,36.72l0.004,0.45c-2.755-0.043-5.846-0.092-9.255-0.144    c-3.411,0.052-6.501,0.101-9.256,0.144l0.003-0.45C445.012,914.227,433,881,433,881l-6-55c0,0-44.5-2.5-68.5-4.5    S320,793,315.375,773.108C313,760,332,751,332,751s4-25,6-47s14-51,12-85s-28.793-58.313-28.793-58.313L299,532c0,0-15,20-16,37    s-1,26,13.772,37.255S327,611,332,625s-5.664,35.027-5.664,35.027l-29.444,48.445c0,0-49.893,74.526-85.893,63.526    c1-22,19-27,41-47s11-41,11-41s-33-7-35-44c-23-10-23-34-19-40s27-11,27-11l-9-26c0,0-16,0-28-10s-14-58-14-58l-21-3    c-4,0-18-22,6-61c-21-1-42-23-42-23s1-16,20-33c-28-19-29-40.999-29-40.999s15.999-11.999,29.999-18.999    c-29-2-30.001-63.335-30.001-63.335s34.997,11.341,48.997,6.341c-53-60-33.005-78.992-33.005-78.992s31.988,13.016,58.988,33.016    c-41-96-6.023-95.969-0.023-93.969s121.954,130.063,129.954,147.063s-7.501,124.192-7.091,105.125    c0.409-19.067-8.184,78.25,39.816,133.25C405.742,449.034,491,442.005,508,441.124V441h3.75h3.983H519v0.124    c18,0.881,102.5,7.911,151.607,62.376c48-55,39.527-152.317,39.938-133.25s-15.031-88.125-7.031-105.125    s123.984-145.063,129.984-147.063s40.992-2.031-0.008,93.969c27-20,58.996-33.016,58.996-33.016s19.998,18.992-33.002,78.992    c14,5,48.998-16.008,48.998-16.008s-1,71.002-30,73.002c14,7,30,18.999,30,18.999S907.482,356,879.482,375z M512.907,741.891    l-0.451,0.726L512,741.891c0,0-10.336,8.396-19.935,20.3c-8.563,10.616-14.204,23.414-13.732,36.144    c1,27,14.667,25.64,20.667,24.64c4.492-0.749,9.545-7.095,11.801-10.236l1.605-1.325l3.194,3.332    c2.564,3.283,6.57,7.619,10.236,8.229c6,1,17.829,4.027,18.829-22.973c0.482-13.018-3.664-27.801-12.433-38.528    C522.817,749.95,512.907,741.891,512.907,741.891z M469,670c-10.564-9.508-47-10-61-10c-26,0-41,25.615-43,46.615    S377,756,413.5,753s42.5-11,55.5-21S489,688,469,670z M659.814,706.615c-2-21-17-46.615-43-46.615c-14,0-50.437,0.492-61,10    c-20,18-13,52,0,62s19,18,55.5,21S661.814,727.615,659.814,706.615z M581.814,780c-8,22,0,26,0,26l7-18c0,0,28,2,41-8    C629.814,780,591.814,783,581.814,780z M395,780c13,10,41,8,41,8l7,18c0,0,8-4,0-26C433,783,395,780,395,780z"
   id="path8" />
	</g>
	<g
   id="Capa_1_1_">
		
			<image
   sodipodi:absref="C:\Users\admin\Documents\et\gtv\static\DCE2ADC0.jpeg"
   xlink:href="DCE2ADC0.jpeg"
   display="inline"
   overflow="visible"
   opacity="0.4"
   enable-background="new    "
   width="64"
   height="64"
   transform="matrix(13.6089 0 0 13.6089 76.5156 87.042)"
   id="image11">
		</image>
	</g>
</g>

<g
   inkscape:groupmode="layer"
   id="layer1"
   inkscape:label="Layer"
   style="display:inline" /><g
   inkscape:groupmode="layer"
   id="layer2"
   inkscape:label="Layer#1"
   style="display:inline"><image
     sodipodi:absref="C:\Users\admin\Documents\et\gtv\static\return_to_castle_wolfenstein___logo_by_lelekhd_d6gsbzn.png"
     xlink:href="return_to_castle_wolfenstein___logo_by_lelekhd_d6gsbzn.png"
     style="display:none"
     width="1963.0292"
     height="1187.5599"
     id="image3005"
     x="-461.00824"
     y="43.36956" /><g
     id="Capa_2_1_">
	<path
   d="m 513.646,412.28 c 25.258,0.029 57.41,7.971 57.41,7.971 l -5.393,-53.053 c 0,0 54.059,13.72 54.727,-32.219 2,-28 -61,-51.938 -79.25,-64.938 -18.055,-12.861 -25.584,-26.569 -25.744,-26.861 l -1.701,-2.806 -1.701,2.889 c -0.159,0.292 -7.688,14 -25.743,26.861 -18.25,13 -81.25,36.938 -79.25,64.938 0.667,45.938 54.727,32.219 54.727,32.219 l -5.393,53.053 c -10e-4,0 32.053,-8.025 57.311,-8.054 z m -9.157,505.441 C 445.012,914.227 433,881 433,881 l -6,-55 c 0,0 -44.5,-2.5 -68.5,-4.5 -24,-2 -38.5,-28.5 -43.125,-48.392 C 313,760 332,751 332,751 c 0,0 4,-25 6,-47 2,-22 14,-51 12,-85 -2,-34 -28.793,-58.313 -28.793,-58.313 L 299,532 c 0,0 -15,20 -16,37 -1,17 -1,26 13.772,37.255 C 311.544,617.51 327,611 332,625 c 5,14 -5.664,35.027 -5.664,35.027 l -29.444,48.445 c 0,0 -49.893,74.526 -85.893,63.526 1,-22 19,-27 41,-47 22,-20 11,-41 11,-41 0,0 -33,-7 -35,-44 -23,-10 -23,-34 -19,-40 4,-6 27.416,-9.798 27.416,-9.798 L 225,559 c 0,0 -14.001,3.999 -26.001,-6.001 -12,-10 -14,-58 -14,-58 l -25.269,-7.312 c -4,0 -18.23,-27.188 10.269,-56.688 -21,-1 -40.749,-17.999 -40.749,-17.999 0,0 -12.25,-7 18.749,-38.001 C 120.5,364 115.005,337 115.005,337 c 0,0 5.161,-14.167 33.993,-21.999 -36.498,-16.501 -37.165,-54.833 -35.165,-56.833 2,-2 29.167,-11.668 53.167,2.332 -53,-60 -31.542,-78.278 -31.542,-78.278 0,0 32.292,8.028 59.292,28.028 -43.583,-78.416 -25.917,-94.083 -20.25,-96.75 1.09,0.675 16,2 33.898,19.088 18.194,19.467 109.082,118.876 115.51,132.537 8,17 -7.501,124.191 -7.091,105.125 0.409,-19.066 -8.184,78.25 39.816,133.25 C 405.742,449.034 491,442.005 508,441.124 l 5.694,-0.124 5.695,0.041 c 17,0.881 102.258,7.91 151.365,62.376 48,-55 39.408,-152.316 39.816,-133.25 0.41,19.066 -15.09,-88.125 -7.09,-105.125 6.428,-13.66 97.314,-113.069 115.51,-132.537 17.898,-17.088 32.809,-18.413 33.898,-19.088 5.666,2.667 23.332,18.334 -20.25,96.75 27,-20 59.291,-28.028 59.291,-28.028 0,0 21.459,18.278 -31.541,78.278 24,-14 51.166,-4.333 53.166,-2.333 2,2 1.334,40.333 -35.164,56.833 28.831,7.833 33.992,21.999 33.992,21.999 0,0 -5.494,27 -32.994,37.999 31,31.001 18.75,38.001 18.75,38.001 0,0 -19.75,16.999 -40.75,17.999 28.5,29.501 14.27,56.688 10.27,56.688 l -25.27,7.312 c 0,0 -2,48 -14,58 -12,10 -26,6 -26,6 l -11.416,31.201 c 0,0 23.416,3.799 27.416,9.799 4,6 4,30 -19,40 -2,37 -35,44 -35,44 0,0 -11,21 11,41 22,20 40,25 41,47 -36,11 -85.893,-63.527 -85.893,-63.527 l -29.443,-48.445 c 0,0 -10.664,-21.027 -5.664,-35.027 5,-14 20.455,-7.49 35.228,-18.744 14.772,-11.256 14.772,-20.256 13.772,-37.256 -1,-17 -16,-37 -16,-37 l -22.207,28.688 c 0,0 -26.793,24.313 -28.793,58.313 -2,34 10,63 12,85 2,22 6,47 6,47 0,0 19,9 16.625,22.109 -4.625,19.891 -19.125,46.391 -43.125,48.391 -24,2 -68.5,4.5 -68.5,4.5 l -6,55 c 0,0 -12.012,33.227 -71.49,36.721 0,0 -5.842,0.359 -9.252,0.307 -3.408,0.051 -9.157,-0.224 -9.157,-0.224 z M 469,670 c -10.564,-9.508 -47,-10 -61,-10 -26,0 -41,25.615 -43,46.615 -2,21 12,49.385 48.5,46.385 36.5,-3 42.5,-11 55.5,-21 13,-10 20,-44 0,-62 z m -74,110 c 13,10 41,8 41,8 l 7,18 c 0,0 8,-4 0,-26 -10,3 -48,0 -48,0 z m 118.694,29.469 1.289,1.859 2.406,4.338 c 2.256,3.143 6.508,6.475 11,7.225 6,1 19.666,2.359 20.666,-24.641 0.473,-12.729 -5.17,-25.527 -13.732,-36.143 -9.598,-11.904 -19.934,-20.301 -19.934,-20.301 l -1.695,-1.077 -1.694,1.162 c 0,0 -10.336,8.396 -19.935,20.3 -8.563,10.616 -14.204,23.414 -13.732,36.144 1,27 14.667,25.64 20.667,24.64 4.492,-0.749 8.744,-4.082 11,-7.224 l 2.406,-4.338 z m 44.696,-77.553 c 13,10 19,18 55.5,21 36.5,3 50.5,-25.385 48.5,-46.385 -2,-21 -17,-46.615 -43,-46.615 -14,0 -50.436,0.492 -61,10 -20,18 -13,52 0,62 z m 26,48 c -8,22 0,26 0,26 l 7,-18 c 0,0 28,2 41,-8 0,0 -38,3 -48,0 z"
   id="path14"
   inkscape:connector-curvature="0"
   style="fill:#ffc100" />
</g><g
     id="g83"
     transform="matrix(1.2499977,0,0,1.2499977,1342.231,286.13709)"><path
       style="color:#000000;font-style:normal;font-variant:normal;font-weight:normal;font-stretch:normal;font-size:medium;line-height:normal;font-family:Sans;-inkscape-font-specification:Sans;text-indent:0;text-align:start;text-decoration:none;text-decoration-line:none;letter-spacing:normal;word-spacing:normal;text-transform:none;writing-mode:lr-tb;direction:ltr;baseline-shift:baseline;text-anchor:start;display:inline;overflow:visible;visibility:visible;fill:#000000;fill-opacity:1;fill-rule:nonzero;stroke:none;stroke-width:5;marker:none;enable-background:accumulate"
       id="path3892"
       d="m -20.012279,130.65794 -2.025,0.025 -2.20001,0.025 h -0.025 -0.05 c -0.56094,0.0296 -1.70494,0.16559 -3.625,0.4 -1.92006,0.2344 -4.436941,0.56647 -7.100021,1 -2.76457,0.45005 -5.64229,1.00969 -8.15001,1.675 -2.39466,0.63532 -4.73741,1.1624 -6.65002,3.07501 -1.11785,1.11786 -1.76614,2.39333 -2.175,3.62501 -0.40886,-1.23169 -1.05715,-2.50715 -2.175,-3.62501 -1.91261,-1.91261 -4.25536,-2.43969 -6.65002,-3.07501 -2.507723,-0.66531 -5.385443,-1.22495 -8.150016,-1.675 -2.640869,-0.42991 -5.132338,-0.76619 -7.025013,-1 -1.892676,-0.23381 -3.029614,-0.36834 -3.550007,-0.4 -0.002,2.3e-4 -0.0219,2e-4 -0.025,0 -0.05436,-0.004 -0.104368,0.002 -0.15,0 -0.09126,-0.003 -0.182568,0.002 -0.300001,0 -0.234863,-0.005 -0.536171,-0.0223 -0.825001,-0.025 -0.577661,-0.005 -1.150002,0 -1.150002,0 h -2.000004 v 2 13.00003 h -72.650136 -4.82501 v 8.00001 l 3.40001,3.42501 39.00007,39.00007 0.6,0.575 h 0.825 35.65007 v 58.85012 4.85001 l 3.425006,-3.45001 13.575026,-13.62503 v 21.22504 4.85001 l 3.425005,-3.45 14.575033,-14.62503 v 4.22501 4.82501 l 3.42501,-3.40001 21.000041,-21.00004 0.575,-0.60001 v -0.825 -37.85007 h 35.65006 0.825 l 0.6,-0.575 39.00008,-39.00007 3.4,-3.42501 v -8.00001 h -4.82501 -72.65013 v -13.00003 z m -59.875117,4.05 h 0.075 c 0.01691,0.001 1.091842,0.13274 1.725003,0.20001 z m 55.700107,0 h 0.075 0.1 v 0.22501 h -2 c 0.72505,-0.0761 1.78584,-0.22158 1.825,-0.22501 z m -53.475103,0.25001 c 0.505641,0.0557 0.521361,0.0443 1.175002,0.125 1.655203,0.20447 3.853399,0.51705 6.125012,0.875 -3.004878,-0.47056 -5.581163,-0.8073 -7.300014,-1 z m 50.925103,0.05 c -1.61252,0.18273 -3.91957,0.49164 -6.575011,0.9 2.14817,-0.33292 4.264721,-0.63147 5.850011,-0.825 0.40573,-0.0495 0.36769,-0.0348 0.725,-0.075 z m -34.950074,2.675 c 1.462323,0.38981 2.501633,0.79399 3.350013,1.225 -0.15979,-0.073 -0.27743,-0.14117 -0.475,-0.225 -0.73852,-0.31336 -1.74502,-0.68782 -2.875013,-1 z m 19.350043,0 c -1.12999,0.31218 -2.13649,0.68664 -2.87501,1 -0.19757,0.0838 -0.31521,0.15205 -0.475,0.225 0.84838,-0.43101 1.88769,-0.83519 3.35001,-1.225 z m -33.675069,1.55 c 1.673843,0.20291 3.290574,0.37463 5.750011,0.775 2.615437,0.42577 5.275002,0.92449 7.350015,1.47501 0.97355,0.25829 1.877973,0.60045 2.525003,0.875 0.2086,0.0885 0.35117,0.15574 0.50001,0.225 0.0575,0.13784 0.13205,0.27576 0.2,0.475 0.0976,0.28609 0.1654,0.63473 0.25,0.975 -0.97037,0.24145 -2.243943,0.66893 -3.400013,1.82501 -1.3422,1.3422 -1.77999,2.92492 -1.975005,3.9 -0.207144,1.03545 -0.201016,1.88154 -0.2,1.92501 2.4e-5,0.001 0,0.05 0,0.05 v 16.95003 h -65.325122 l -3.00001,-3.00001 h 27.32505 0.82501 l 0.6,-0.575 4.00001,-4 3.400001,-3.42501 h -4.825011 -39.32507 l -4.00001,-4.00001 h 58.47511 l -5.57501,5.57501 -3.400007,3.42501 h 4.82501 13.000024 2.000004 v -2.00001 z m 48.0001,0 v 21.45004 2.00001 h 2 13.00002 4.82501 l -3.4,-3.42501 -5.57501,-5.57501 h 58.47511 l -4.00001,4.00001 h -39.32508 -4.825 l 3.4,3.42501 4.00001003,4 0.59999997,0.575 h 0.825 27.32505 l -3,3.00001 H -39.01232 v -16.95003 c 0,0 -2e-5,-0.0489 0,-0.05 0.001,-0.0435 0.007,-0.88948 -0.2,-1.92501 -0.19501,-0.97506 -0.63279,-2.5578 -1.975,-3.9 -1.15607,-1.15607 -2.42964,-1.58356 -3.40001,-1.82501 0.0846,-0.34027 0.15244,-0.68891 0.25,-0.975 0.0679,-0.19924 0.14251,-0.33716 0.20001,-0.475 0.14882,-0.0693 0.2914,-0.13649 0.5,-0.225 0.64703,-0.27455 1.55145,-0.61671 2.525,-0.875 2.07501,-0.55052 4.73458,-1.04924 7.35001,-1.47501 2.45944,-0.40037 4.076171,-0.57209 5.750021,-0.775 z m -28.025061,2.17501 c 0.36286,0.91178 0.61428,1.89978 0.775,3.025 0.11508,0.80664 0.13951,1.40263 0.2,1.95001 l 0.025,1.3 h -1.975 l 1.725,-0.025 0.1,-1.875 c 0,0 0.031,-0.6084 -0.075,-1.35001 -0.13725,-0.96083 -0.38475,-1.89719 -0.65,-2.675 -0.0439,-0.12861 -0.0802,-0.2299 -0.125,-0.35 z m 8.05002,0 c -0.0448,0.1201 -0.0811,0.22139 -0.125,0.35 -0.26525,0.77781 -0.51275,1.71417 -0.65,2.675 0.16075,-1.12524 0.41213,-2.11321 0.775,-3.025 z m -0.875,4.12501 -0.1,1.575 v -0.725 c 0.0264,-0.23913 0.0753,-0.57077 0.1,-0.85 z m -0.125,2.125 1.975,0.025 h -1 -0.975 z m -8.17502,0.025 c -0.041,0.002 -0.4443,0.0439 -0.975,0.15 -0.36337,0.0727 -0.66015,0.16005 -0.9,0.25 -0.0624,0.0234 -0.11939,0.027 -0.175,0.05 0.33272,-0.16125 0.70162,-0.27532 1.075,-0.35 0.48654,-0.0973 0.975,-0.1 0.975,-0.1 z m 10.27502,0 c 0.17915,0.002 0.4303,-0.0139 1,0.1 0.37338,0.0747 0.74228,0.18875 1.075,0.35 -0.0556,-0.0229 -0.11256,-0.0266 -0.175,-0.05 -0.23984,-0.0899 -0.53662,-0.17732 -0.9,-0.25 -0.54393,-0.10876 -0.97882,-0.14881 -1,-0.15 z m -13.67503,1.8 c -0.0229,0.0556 -0.0266,0.11258 -0.05,0.175 -0.0899,0.23982 -0.17732,0.53671 -0.25,0.90001 -0.10298,0.51522 -0.12122,0.88815 -0.125,0.95 2.7e-4,-0.0984 -0.0292,-0.42909 0.075,-0.95 0.0747,-0.37339 0.18875,-0.74229 0.35,-1.07501 z m 17.10004,0 c 0.16124,0.33272 0.27532,0.70162 0.35,1.07501 0.1042,0.52084 0.0747,0.85157 0.075,0.95 -0.004,-0.0619 -0.0219,-0.43456 -0.125,-0.95 -0.0727,-0.36332 -0.16004,-0.66013 -0.25,-0.90001 -0.0234,-0.0624 -0.027,-0.11936 -0.05,-0.175 z m -13.55003,10.20002 c 0.0155,-10e-4 0.1,0 0.1,0 h 1.9 1.97501 0.025 2 0.025 2.97501 0.9 c 0,0 0.0845,-10e-4 0.1,0 v 0.1 8.90002 h -10.00002 v -8.90002 z m -23.000047,-7.15001 v 6.15001 h -6.150011 l 5.57501,-5.57501 z m 56.000108,0 0.575,0.575 5.57501,5.57501 h -6.15001 z m -98.325191,24.15004 h 57.325112 v 38.00008 4.82501 l 3.425005,-3.40001 4.000013,-4.00001 0.575,-0.6 v -0.825 -34.00007 h 10.00002 v 38.00008 4.82501 l 3.42501,-3.40001 4,-4.00001 0.575,-0.6 v -0.825 -34.00007 h 57.325111 l -4,4.00001 h -42.32508 -2.00001 v 2.00001 41.32507 l -9.000021,9.00002 v -12.32502 -4.82501 l -3.425,3.4 -4.00001,4.00001 -0.575,0.6 v 0.82501 7.32501 l -10.00002,10.00002 v -21.17504 -4.82501 l -3.42501,3.40001 -13.575025,13.60002 v -50.32509 -2.00001 h -2.000004 -42.325081 z"
       inkscape:connector-curvature="0" /><path
       style="color:#000000;font-style:normal;font-variant:normal;font-weight:normal;font-stretch:normal;font-size:medium;line-height:normal;font-family:Sans;-inkscape-font-specification:Sans;text-indent:0;text-align:start;text-decoration:none;text-decoration-line:none;letter-spacing:normal;word-spacing:normal;text-transform:none;writing-mode:lr-tb;direction:ltr;baseline-shift:baseline;text-anchor:start;display:inline;overflow:visible;visibility:visible;fill:url(#linearGradient5438);fill-opacity:1;stroke:none;stroke-width:4.00000763;marker:none;enable-background:accumulate"
       id="path3885"
       d="m -80.587398,134.10794 v 13.57503 c 0.0057,0.74766 -0.677344,1.43065 -1.425003,1.425 h -74.425139 l 36.15007,36.15007 h 40.275073 c 0.747658,-0.006 1.430651,0.67735 1.425003,1.425 v 57.42511 l 14.575031,-14.62503 c 0.39153,-0.39995 1.03245,-0.53151 1.54988,-0.31814 0.51742,0.21338 0.87931,0.75847 0.87512,1.31815 v 22.62504 l 15.575033,-15.62503 c 0.39153,-0.39995 1.03246,-0.53151 1.54988,-0.31814 0.51743,0.21337 0.87932,0.75847 0.87512,1.31814 v 5.62501 l 18.150041,-18.15003 v -39.27508 c -0.006,-0.74765 0.67734,-1.43065 1.425,-1.425 h 40.27508 l 36.15007,-36.15007 h -74.42514 c -0.74766,0.006 -1.43066,-0.67734 -1.42501,-1.425 v -13.55003 h -0.75 v -0.025 c -0.12117,0.008 -1.49587,0.14723 -3.35,0.375 -1.88147,0.23114 -4.344241,0.57581 -6.950021,1.00001 -2.69691,0.43903 -5.46733,0.98112 -7.80001,1.6 -2.41264,0.64009 -3.98999,1.06498 -5.12501,2.2 -1.33333,1.33333 -1.65391,3.17739 -1.92501,5.07501 -0.12252,0.85766 -0.14082,1.50296 -0.2,2.02501 l -0.025,1.875 h 1.55001 1 c 0.0252,0.008 0.0502,0.016 0.075,0.025 0,0 0.40683,0.0214 0.925,0.125 0.31902,0.0638 0.5829,0.14358 0.8,0.225 0.10855,0.0407 0.21314,0.0855 0.3,0.125 0.0434,0.0197 0.0715,0.0217 0.125,0.05 0.0535,0.0283 0.0276,-0.0724 0.375,0.275 0.34819,0.34761 0.24662,0.32142 0.275,0.375 0.0284,0.0536 0.0302,0.0815 0.05,0.125 0.0395,0.0869 0.0843,0.19144 0.125,0.3 0.0814,0.21713 0.16121,0.48103 0.225,0.80001 0.10364,0.51822 0.125,0.925 0.125,0.925 0.009,0.0248 0.0174,0.0498 0.025,0.075 v 19.00003 c 0.006,0.74765 -0.67732,1.43063 -1.42496,1.42501 h -14.00002 c -0.74766,0.006 -1.43065,-0.67735 -1.42501,-1.42501 v -19.00003 c 0.008,-0.0252 0.016,-0.0502 0.025,-0.075 0,0 0.0214,-0.40695 0.125,-0.925 0.0638,-0.31896 0.1436,-0.58293 0.225,-0.80001 0.0407,-0.10854 0.0855,-0.21314 0.125,-0.3 0.0198,-0.0434 0.0217,-0.0715 0.05,-0.125 0.0283,-0.0535 -0.0723,-0.0276 0.275,-0.375 0.34793,-0.34831 0.32148,-0.24665 0.37501,-0.275 0.0535,-0.0283 0.0816,-0.0303 0.125,-0.05 0.0869,-0.0395 0.19144,-0.0843 0.3,-0.125 0.21711,-0.0814 0.48099,-0.1612 0.8,-0.225 0.51824,-0.10364 0.925,-0.125 0.925,-0.125 0.0247,-0.009 0.0498,-0.0174 0.075,-0.025 h 2 0.55 l -0.025,-1.875 c -0.0591,-0.52165 -0.0776,-1.16703 -0.2,-2.02501 -0.271,-1.89758 -0.59162,-3.74167 -1.92496,-5.07501 -1.13511,-1.13502 -2.71245,-1.55991 -5.125093,-2.2 -2.33268,-0.61888 -5.103097,-1.16097 -7.800014,-1.6 -2.585829,-0.42095 -5.016841,-0.76841 -6.875013,-1.00001 -1.858172,-0.2316 -3.253158,-0.3691 -3.350006,-0.375 -0.01664,3e-4 -0.03336,3e-4 -0.05,0 -5.04e-4,-3e-5 -0.05432,-0.003 -0.05,0 -0.0108,-3.6e-4 -0.03648,3.7e-4 -0.05,0 -0.05408,-0.001 -0.114734,10e-4 -0.2,0 -0.130649,-0.002 -0.307376,10e-4 -0.475002,0 z"
       inkscape:connector-curvature="0" /><path
       style="color:#000000;font-style:normal;font-variant:normal;font-weight:normal;font-stretch:normal;font-size:medium;line-height:normal;font-family:Sans;-inkscape-font-specification:Sans;text-indent:0;text-align:start;text-decoration:none;text-decoration-line:none;letter-spacing:normal;word-spacing:normal;text-transform:none;writing-mode:lr-tb;direction:ltr;baseline-shift:baseline;text-anchor:start;display:inline;overflow:visible;visibility:visible;fill:#ffffff;fill-opacity:1;stroke:none;stroke-width:1;marker:none;enable-background:accumulate"
       id="stroke_curved_top_left"
       d="m -82.012401,132.68294 v 15.00003 h -77.850149 l 39.00008,39.00007 h 40.850073 v 60.85012 l 17.000034,-17.05003 c 0,8.68335 0,17.3667 0,26.05005 l 18.000033,-18.05004 v 9.05002 l 21.000041,-21.00004 v -39.85008 h 40.85008 l 39.00007,-39.00007 h -77.85014 v -15.00003 l -2.19342,0.03 c -0.56842,0.03 -5.24819,0.51397 -10.506611,1.36999 -2.72494,0.4436 -5.54482,0.98689 -7.95001,1.62501 -2.40519,0.63811 -4.29291,1.11789 -5.75001,2.575 -1.70711,1.70711 -2.05238,3.96662 -2.32501,5.87501 -0.14279,0.99953 -0.19036,1.87427 -0.23268,2.19964 l -0.0423,3.32537 h 3.00001 1 c 0,0 0.30115,0.0152 0.725,0.1 0.42385,0.0848 0.84641,0.27141 0.875,0.3 0.0286,0.0286 0.21523,0.45115 0.3,0.87501 0.0848,0.42385 0.1,0.725 0.1,0.725 V 170.683 h -14.00002 v -19.00003 c 0,0 0.0153,-0.30115 0.1,-0.725 0.0848,-0.42386 0.2714,-0.84641 0.3,-0.87501 0.0286,-0.0286 0.45115,-0.21523 0.875,-0.3 0.4239,-0.0848 0.725,-0.1 0.725,-0.1 h 2 2.00001 l -0.0424,-3.32537 c -0.0423,-0.32537 -0.0901,-1.20011 -0.23264,-2.19964 -0.27262,-1.90839 -0.61788,-4.1679 -2.32499,-5.87501 -1.4571,-1.45711 -3.34482,-1.93689 -5.75001,-2.575 -2.405193,-0.63812 -5.225075,-1.18141 -7.950017,-1.62501 -5.216417,-0.84918 -9.81905,-1.3327 -10.372035,-1.36635 -0.08852,-0.0239 -2.327989,-0.0336 -2.327989,-0.0336 z m 4.000008,4.25001 c 1.883196,0.21045 4.619937,0.53755 8.075015,1.1 2.650061,0.43141 5.361455,0.94437 7.550015,1.525 2.188563,0.58064 3.932123,1.48212 3.975013,1.52501 0.29289,0.29289 0.94763,2.0334 1.175,3.625 0.0742,0.51902 0.05,0.97501 0.05,0.97501 0,0 -0.64839,0.01 -1.34996,0.15 -0.82616,0.16523 -1.90361,0.47859 -2.87501,1.45 -0.971403,0.9714 -1.284773,2.04886 -1.450003,2.875 -0.16527,0.82615 -0.15004,1.52501 -0.15004,1.52501 v 19.00003 h -68.175127 l -7.00002,-7.00001 h 32.17506 l 4.00001,-4.00001 h -40.17507 l -8.00002,-8.00001 h 68.175129 l -9.000017,9.00001 h 13.000025 z m 52.000104,0 v 23.75004 h 13.00002 l -9.00001,-9.00001 h 68.17512 l -8.00001,8.00001 h -40.17508 l 4.00001,4.00001 h 32.17506 l -7.00001,7.00001 H -41.01232 v -19.00003 c 0,0 0.0153,-0.69886 -0.15,-1.52501 -0.16523,-0.82614 -0.47859,-1.9036 -1.45,-2.875 -0.97141,-0.97141 -2.04886,-1.28477 -2.87501,-1.45 -0.74271,-0.14855 -1.25461,-0.14872 -1.375,-0.15 0.034,-0.43286 8e-4,-0.45599 0.075,-0.97501 0.22737,-1.5916 0.88211,-3.33211 1.175,-3.625 0.0429,-0.0429 1.78645,-0.94437 3.97501,-1.52501 2.18855,-0.58063 4.89995,-1.09359 7.55001,-1.525 3.455081,-0.56245 6.191821,-0.88955 8.075021,-1.1 z m -101.175201,37.75007 h 64.175127 v 40.00008 l 4.000013,-4.00001 v -36.00007 h 14.00002 v 40.00008 l 4.00001,-4.00001 v -36.00007 h 64.175121 l -8.00001,8.00002 h -43.17509 v 42.17508 l -13.000021,13.00002 v -17.17503 l -4.00001,4 v 8.17502 l -14.00002,14.00003 v -26.02505 l -17.000039,17.02503 v -55.1751 h -43.175081 z"
       inkscape:connector-curvature="0" /></g></g></svg>