<?xml version="1.0" encoding="utf-8"?>
<!-- Generator: Adobe Illustrator 16.0.0, SVG Export Plug-In . SVG Version: 6.00 Build 0)  -->
<!DOCTYPE svg PUBLIC "-//W3C//DTD SVG 1.1//EN" "http://www.w3.org/Graphics/SVG/1.1/DTD/svg11.dtd">
<svg version="1.1" xmlns="http://www.w3.org/2000/svg" xmlns:xlink="http://www.w3.org/1999/xlink" x="0px" y="0px" width="1024px"
	 height="1024px" viewBox="0 0 1024 1024" enable-background="new 0 0 1024 1024" xml:space="preserve">
<g id="Capa_1" display="none">
	<g id="Capa_2" display="inline">
		<path fill="#FFC100" d="M461.727,367.281l-5.393,53.053c0,0,32.151-7.942,57.409-7.971c25.258-0.029,60.592,7.971,60.592,7.971
			l-8.577-53.053c0,0,52.577,10.387,54.728-32.219c2-28-61-51.938-79.25-64.938S512.001,242,512.001,242l-0.008,1.264
			c-0.159,0.292-7.688,14-25.743,26.861c-18.25,13-81.25,36.938-79.25,64.938C407.667,381.001,461.727,367.281,461.727,367.281z"/>
		<path fill="#FFC100" d="M879.482,375c19,17,20,33,20,33s-21,22-42,23c24,39,10,61,6,61l-21,3c0,0-2,48-14,58s-28,10-28,10l-9,26
			c0,0,23,5,27,11s4,30-19,40c-2,37-35,44-35,44s-11,21,11,41s40,25,41,47c-36,11-85.893-63.526-85.893-63.526l-29.443-48.445
			c0,0-10.663-21.027-5.663-35.027s20.456-7.49,35.228-18.745C745.482,595,745.482,586,744.482,569s-16-37-16-37l-22.206,28.688
			c0,0-26.793,24.313-28.793,58.313s10,63,12,85s6,47,6,47s19.066,4.116,16.677,17.725c-4.626,19.893-27.66,49.775-40.66,50.775
			c-24,2-71.017,6.5-71.017,6.5l-6,55c0,0-12.013,33.227-71.49,36.72l0.004,0.45c-2.755-0.043-5.846-0.092-9.255-0.144
			c-3.411,0.052-6.501,0.101-9.256,0.144l0.003-0.45C445.012,914.227,433,881,433,881l-6-55c0,0-44.5-2.5-68.5-4.5
			S320,793,315.375,773.108C313,760,332,751,332,751s4-25,6-47s14-51,12-85s-28.793-58.313-28.793-58.313L299,532c0,0-15,20-16,37
			s-1,26,13.772,37.255S327,611,332,625s-5.664,35.027-5.664,35.027l-29.444,48.445c0,0-49.893,74.526-85.893,63.526
			c1-22,19-27,41-47s11-41,11-41s-33-7-35-44c-23-10-23-34-19-40s27-11,27-11l-9-26c0,0-16,0-28-10s-14-58-14-58l-21-3
			c-4,0-18-22,6-61c-21-1-42-23-42-23s1-16,20-33c-28-19-29-40.999-29-40.999s15.999-11.999,29.999-18.999
			c-29-2-30.001-63.335-30.001-63.335s34.997,11.341,48.997,6.341c-53-60-33.005-78.992-33.005-78.992s31.988,13.016,58.988,33.016
			c-41-96-6.023-95.969-0.023-93.969s121.954,130.063,129.954,147.063s-7.501,124.192-7.091,105.125
			c0.409-19.067-8.184,78.25,39.816,133.25C405.742,449.034,491,442.005,508,441.124V441h3.75h3.983H519v0.124
			c18,0.881,102.5,7.911,151.607,62.376c48-55,39.527-152.317,39.938-133.25s-15.031-88.125-7.031-105.125
			s123.984-145.063,129.984-147.063s40.992-2.031-0.008,93.969c27-20,58.996-33.016,58.996-33.016s19.998,18.992-33.002,78.992
			c14,5,48.998-16.008,48.998-16.008s-1,71.002-30,73.002c14,7,30,18.999,30,18.999S907.482,356,879.482,375z M512.907,741.891
			l-0.451,0.726L512,741.891c0,0-10.336,8.396-19.935,20.3c-8.563,10.616-14.204,23.414-13.732,36.144
			c1,27,14.667,25.64,20.667,24.64c4.492-0.749,9.545-7.095,11.801-10.236l1.605-1.325l3.194,3.332
			c2.564,3.283,6.57,7.619,10.236,8.229c6,1,17.829,4.027,18.829-22.973c0.482-13.018-3.664-27.801-12.433-38.528
			C522.817,749.95,512.907,741.891,512.907,741.891z M469,670c-10.564-9.508-47-10-61-10c-26,0-41,25.615-43,46.615
			S377,756,413.5,753s42.5-11,55.5-21S489,688,469,670z M659.814,706.615c-2-21-17-46.615-43-46.615c-14,0-50.437,0.492-61,10
			c-20,18-13,52,0,62s19,18,55.5,21S661.814,727.615,659.814,706.615z M581.814,780c-8,22,0,26,0,26l7-18c0,0,28,2,41-8
			C629.814,780,591.814,783,581.814,780z M395,780c13,10,41,8,41,8l7,18c0,0,8-4,0-26C433,783,395,780,395,780z"/>
	</g>
	<g id="Capa_1_1_">
		
			<image display="inline" overflow="visible" opacity="0.4" enable-background="new    " width="64" height="64" xlink:href="DCE2ADC0.jpeg"  transform="matrix(13.6089 0 0 13.6089 76.5156 87.042)">
		</image>
	</g>
</g>
<g id="Capa_2_1_">
	<path fill="#FFC100" d="M513.646,412.28c25.258,0.029,57.41,7.971,57.41,7.971l-5.393-53.053c0,0,54.059,13.72,54.727-32.219
		c2-28-61-51.938-79.25-64.938c-18.055-12.861-25.584-26.569-25.744-26.861l-1.701-2.806l-1.701,2.889
		c-0.159,0.292-7.688,14-25.743,26.861c-18.25,13-81.25,36.938-79.25,64.938c0.667,45.938,54.727,32.219,54.727,32.219
		l-5.393,53.053C456.334,420.334,488.388,412.309,513.646,412.28L513.646,412.28z M504.489,917.721C445.012,914.227,433,881,433,881
		l-6-55c0,0-44.5-2.5-68.5-4.5S320,793,315.375,773.108C313,760,332,751,332,751s4-25,6-47s14-51,12-85
		s-28.793-58.313-28.793-58.313L299,532c0,0-15,20-16,37s-1,26,13.772,37.255S327,611,332,625s-5.664,35.027-5.664,35.027
		l-29.444,48.445c0,0-49.893,74.526-85.893,63.526c1-22,19-27,41-47s11-41,11-41s-33-7-35-44c-23-10-23-34-19-40
		s27.416-9.798,27.416-9.798L225,559c0,0-14.001,3.999-26.001-6.001s-14-58-14-58l-25.269-7.312c-4,0-18.23-27.188,10.269-56.688
		c-21-1-40.749-17.999-40.749-17.999s-12.25-7,18.749-38.001C120.5,364,115.005,337,115.005,337s5.161-14.167,33.993-21.999
		c-36.498-16.501-37.165-54.833-35.165-56.833S143,246.5,167,260.5c-53-60-31.542-78.278-31.542-78.278s32.292,8.028,59.292,28.028
		c-43.583-78.416-25.917-94.083-20.25-96.75c1.09,0.675,16,2,33.898,19.088c18.194,19.467,109.082,118.876,115.51,132.537
		c8,17-7.501,124.191-7.091,105.125c0.409-19.066-8.184,78.25,39.816,133.25C405.742,449.034,491,442.005,508,441.124l5.694-0.124
		l5.695,0.041c17,0.881,102.258,7.91,151.365,62.376c48-55,39.408-152.316,39.816-133.25c0.41,19.066-15.09-88.125-7.09-105.125
		c6.428-13.66,97.314-113.069,115.51-132.537c17.898-17.088,32.809-18.413,33.898-19.088c5.666,2.667,23.332,18.334-20.25,96.75
		c27-20,59.291-28.028,59.291-28.028s21.459,18.278-31.541,78.278c24-14,51.166-4.333,53.166-2.333s1.334,40.333-35.164,56.833
		c28.831,7.833,33.992,21.999,33.992,21.999s-5.494,27-32.994,37.999c31,31.001,18.75,38.001,18.75,38.001
		s-19.75,16.999-40.75,17.999c28.5,29.501,14.27,56.688,10.27,56.688l-25.27,7.312c0,0-2,48-14,58s-26,6-26,6l-11.416,31.201
		c0,0,23.416,3.799,27.416,9.799s4,30-19,40c-2,37-35,44-35,44s-11,21,11,41s40,25,41,47c-36,11-85.893-63.527-85.893-63.527
		l-29.443-48.445c0,0-10.664-21.027-5.664-35.027s20.455-7.49,35.228-18.744c14.772-11.256,14.772-20.256,13.772-37.256
		s-16-37-16-37l-22.207,28.688c0,0-26.793,24.313-28.793,58.313s10,63,12,85s6,47,6,47s19,9,16.625,22.109
		c-4.625,19.891-19.125,46.391-43.125,48.391s-68.5,4.5-68.5,4.5l-6,55c0,0-12.012,33.227-71.49,36.721c0,0-5.842,0.359-9.252,0.307
		C510.238,917.996,504.489,917.721,504.489,917.721z M469,670c-10.564-9.508-47-10-61-10c-26,0-41,25.615-43,46.615
		S377,756,413.5,753s42.5-11,55.5-21S489,688,469,670z M395,780c13,10,41,8,41,8l7,18c0,0,8-4,0-26C433,783,395,780,395,780z
		 M513.694,809.469l1.289,1.859l2.406,4.338c2.256,3.143,6.508,6.475,11,7.225c6,1,19.666,2.359,20.666-24.641
		c0.473-12.729-5.17-25.527-13.732-36.143c-9.598-11.904-19.934-20.301-19.934-20.301l-1.695-1.077L512,741.891
		c0,0-10.336,8.396-19.935,20.3c-8.563,10.616-14.204,23.414-13.732,36.144c1,27,14.667,25.64,20.667,24.64
		c4.492-0.749,8.744-4.082,11-7.224l2.406-4.338L513.694,809.469z M558.39,731.916c13,10,19,18,55.5,21s50.5-25.385,48.5-46.385
		s-17-46.615-43-46.615c-14,0-50.436,0.492-61,10C538.39,687.916,545.39,721.916,558.39,731.916z M584.39,779.916c-8,22,0,26,0,26
		l7-18c0,0,28,2,41-8C632.39,779.916,594.39,782.916,584.39,779.916z"/>
</g>
</svg>
