<?xml version="1.0" encoding="UTF-8" standalone="no"?>
<!-- Generator: Adobe Illustrator 16.0.0, SVG Export Plug-In . SVG Version: 6.00 Build 0)  -->

<svg
   xmlns:dc="http://purl.org/dc/elements/1.1/"
   xmlns:cc="http://creativecommons.org/ns#"
   xmlns:rdf="http://www.w3.org/1999/02/22-rdf-syntax-ns#"
   xmlns:svg="http://www.w3.org/2000/svg"
   xmlns="http://www.w3.org/2000/svg"
   xmlns:xlink="http://www.w3.org/1999/xlink"
   xmlns:sodipodi="http://sodipodi.sourceforge.net/DTD/sodipodi-0.dtd"
   xmlns:inkscape="http://www.inkscape.org/namespaces/inkscape"
   version="1.1"
   x="0px"
   y="0px"
   width="1024px"
   height="1024px"
   viewBox="0 0 1024 1024"
   enable-background="new 0 0 1024 1024"
   xml:space="preserve"
   id="svg2"
   inkscape:version="0.92.4 (5da689c313, 2019-01-14)"
   sodipodi:docname="excellent_logo__quake_iii_by_betoheavy-d61yguq.svg"
   inkscape:export-filename="C:\Users\admin\Documents\et\gtv\static\excellent_logo__quake_iii_by_betoheavy-d61yguq.svg.png"
   inkscape:export-xdpi="61.125431"
   inkscape:export-ydpi="61.125431"><metadata
   id="metadata20"><rdf:RDF><cc:Work
       rdf:about=""><dc:format>image/svg+xml</dc:format><dc:type
         rdf:resource="http://purl.org/dc/dcmitype/StillImage" /><dc:title></dc:title></cc:Work></rdf:RDF></metadata><defs
   id="defs18"><linearGradient
     id="linearGradient5430"><stop
       offset="0"
       style="stop-color:#df3323;stop-opacity:1"
       id="stop5432" /><stop
       offset="1"
       style="stop-color:#3d0000;stop-opacity:1"
       id="stop5434" /></linearGradient><linearGradient
     spreadMethod="pad"
     gradientTransform="translate(1142.2157,451.99046)"
     gradientUnits="userSpaceOnUse"
     xlink:href="#linearGradient5430"
     id="linearGradient5438"
     y2="150.06567"
     x2="134.5764"
     y1="2.2628517"
     x1="134.5764" /></defs><sodipodi:namedview
   pagecolor="#ffffff"
   bordercolor="#666666"
   borderopacity="1"
   objecttolerance="10"
   gridtolerance="10"
   guidetolerance="10"
   inkscape:pageopacity="0"
   inkscape:pageshadow="2"
   inkscape:window-width="1920"
   inkscape:window-height="1018"
   id="namedview16"
   showgrid="false"
   inkscape:zoom="0.53684026"
   inkscape:cx="845.35289"
   inkscape:cy="431.24867"
   inkscape:window-x="-8"
   inkscape:window-y="-8"
   inkscape:window-maximized="1"
   inkscape:current-layer="layer2"
   inkscape:pagecheckerboard="true" />
<g
   id="Capa_1"
   display="none">
	<g
   id="Capa_2"
   display="inline">
		<path
   fill="#FFC100"
   d="M461.727,367.281l-5.393,53.053c0,0,32.151-7.942,57.409-7.971c25.258-0.029,60.592,7.971,60.592,7.971    l-8.577-53.053c0,0,52.577,10.387,54.728-32.219c2-28-61-51.938-79.25-64.938S512.001,242,512.001,242l-0.008,1.264    c-0.159,0.292-7.688,14-25.743,26.861c-18.25,13-81.25,36.938-79.25,64.938C407.667,381.001,461.727,367.281,461.727,367.281z"
   id="path6" />
		<path
   fill="#FFC100"
   d="M879.482,375c19,17,20,33,20,33s-21,22-42,23c24,39,10,61,6,61l-21,3c0,0-2,48-14,58s-28,10-28,10l-9,26    c0,0,23,5,27,11s4,30-19,40c-2,37-35,44-35,44s-11,21,11,41s40,25,41,47c-36,11-85.893-63.526-85.893-63.526l-29.443-48.445    c0,0-10.663-21.027-5.663-35.027s20.456-7.49,35.228-18.745C745.482,595,745.482,586,744.482,569s-16-37-16-37l-22.206,28.688    c0,0-26.793,24.313-28.793,58.313s10,63,12,85s6,47,6,47s19.066,4.116,16.677,17.725c-4.626,19.893-27.66,49.775-40.66,50.775    c-24,2-71.017,6.5-71.017,6.5l-6,55c0,0-12.013,33.227-71.49,36.72l0.004,0.45c-2.755-0.043-5.846-0.092-9.255-0.144    c-3.411,0.052-6.501,0.101-9.256,0.144l0.003-0.45C445.012,914.227,433,881,433,881l-6-55c0,0-44.5-2.5-68.5-4.5    S320,793,315.375,773.108C313,760,332,751,332,751s4-25,6-47s14-51,12-85s-28.793-58.313-28.793-58.313L299,532c0,0-15,20-16,37    s-1,26,13.772,37.255S327,611,332,625s-5.664,35.027-5.664,35.027l-29.444,48.445c0,0-49.893,74.526-85.893,63.526    c1-22,19-27,41-47s11-41,11-41s-33-7-35-44c-23-10-23-34-19-40s27-11,27-11l-9-26c0,0-16,0-28-10s-14-58-14-58l-21-3    c-4,0-18-22,6-61c-21-1-42-23-42-23s1-16,20-33c-28-19-29-40.999-29-40.999s15.999-11.999,29.999-18.999    c-29-2-30.001-63.335-30.001-63.335s34.997,11.341,48.997,6.341c-53-60-33.005-78.992-33.005-78.992s31.988,13.016,58.988,33.016    c-41-96-6.023-95.969-0.023-93.969s121.954,130.063,129.954,147.063s-7.501,124.192-7.091,105.125    c0.409-19.067-8.184,78.25,39.816,133.25C405.742,449.034,491,442.005,508,441.124V441h3.75h3.983H519v0.124    c18,0.881,102.5,7.911,151.607,62.376c48-55,39.527-152.317,39.938-133.25s-15.031-88.125-7.031-105.125    s123.984-145.063,129.984-147.063s40.992-2.031-0.008,93.969c27-20,58.996-33.016,58.996-33.016s19.998,18.992-33.002,78.992    c14,5,48.998-16.008,48.998-16.008s-1,71.002-30,73.002c14,7,30,18.999,30,18.999S907.482,356,879.482,375z M512.907,741.891    l-0.451,0.726L512,741.891c0,0-10.336,8.396-19.935,20.3c-8.563,10.616-14.204,23.414-13.732,36.144    c1,27,14.667,25.64,20.667,24.64c4.492-0.749,9.545-7.095,11.801-10.236l1.605-1.325l3.194,3.332    c2.564,3.283,6.57,7.619,10.236,8.229c6,1,17.829,4.027,18.829-22.973c0.482-13.018-3.664-27.801-12.433-38.528    C522.817,749.95,512.907,741.891,512.907,741.891z M469,670c-10.564-9.508-47-10-61-10c-26,0-41,25.615-43,46.615    S377,756,413.5,753s42.5-11,55.5-21S489,688,469,670z M659.814,706.615c-2-21-17-46.615-43-46.615c-14,0-50.437,0.492-61,10    c-20,18-13,52,0,62s19,18,55.5,21S661.814,727.615,659.814,706.615z M581.814,780c-8,22,0,26,0,26l7-18c0,0,28,2,41-8    C629.814,780,591.814,783,581.814,780z M395,780c13,10,41,8,41,8l7,18c0,0,8-4,0-26C433,783,395,780,395,780z"
   id="path8" />
	</g>
	<g
   id="Capa_1_1_">
		
			<image
   sodipodi:absref="C:\Users\admin\Documents\et\gtv\static\DCE2ADC0.jpeg"
   xlink:href="DCE2ADC0.jpeg"
   display="inline"
   overflow="visible"
   opacity="0.4"
   enable-background="new    "
   width="64"
   height="64"
   transform="matrix(13.6089 0 0 13.6089 76.5156 87.042)"
   id="image11">
		</image>
	</g>
</g>

<g
   inkscape:groupmode="layer"
   id="layer1"
   inkscape:label="Layer"
   style="display:inline" /><g
   inkscape:groupmode="layer"
   id="layer2"
   inkscape:label="Layer#1"
   style="display:inline"><image
     sodipodi:absref="C:\Users\admin\Documents\et\gtv\static\return_to_castle_wolfenstein___logo_by_lelekhd_d6gsbzn.png"
     xlink:href="return_to_castle_wolfenstein___logo_by_lelekhd_d6gsbzn.png"
     style="display:none"
     width="1963.0292"
     height="1187.5599"
     id="image3005"
     x="-461.00824"
     y="43.36956" /><g
     id="Capa_2_1_">
	<path
   d="m 513.646,412.28 c 25.258,0.029 57.41,7.971 57.41,7.971 l -5.393,-53.053 c 0,0 54.059,13.72 54.727,-32.219 2,-28 -61,-51.938 -79.25,-64.938 -18.055,-12.861 -25.584,-26.569 -25.744,-26.861 l -1.701,-2.806 -1.701,2.889 c -0.159,0.292 -7.688,14 -25.743,26.861 -18.25,13 -81.25,36.938 -79.25,64.938 0.667,45.938 54.727,32.219 54.727,32.219 l -5.393,53.053 c -10e-4,0 32.053,-8.025 57.311,-8.054 z m -9.157,505.441 C 445.012,914.227 433,881 433,881 l -6,-55 c 0,0 -44.5,-2.5 -68.5,-4.5 -24,-2 -38.5,-28.5 -43.125,-48.392 C 313,760 332,751 332,751 c 0,0 4,-25 6,-47 2,-22 14,-51 12,-85 -2,-34 -28.793,-58.313 -28.793,-58.313 L 299,532 c 0,0 -15,20 -16,37 -1,17 -1,26 13.772,37.255 C 311.544,617.51 327,611 332,625 c 5,14 -5.664,35.027 -5.664,35.027 l -29.444,48.445 c 0,0 -49.893,74.526 -85.893,63.526 1,-22 19,-27 41,-47 22,-20 11,-41 11,-41 0,0 -33,-7 -35,-44 -23,-10 -23,-34 -19,-40 4,-6 27.416,-9.798 27.416,-9.798 L 225,559 c 0,0 -14.001,3.999 -26.001,-6.001 -12,-10 -14,-58 -14,-58 l -25.269,-7.312 c -4,0 -18.23,-27.188 10.269,-56.688 -21,-1 -40.749,-17.999 -40.749,-17.999 0,0 -12.25,-7 18.749,-38.001 C 120.5,364 115.005,337 115.005,337 c 0,0 5.161,-14.167 33.993,-21.999 -36.498,-16.501 -37.165,-54.833 -35.165,-56.833 2,-2 29.167,-11.668 53.167,2.332 -53,-60 -31.542,-78.278 -31.542,-78.278 0,0 32.292,8.028 59.292,28.028 -43.583,-78.416 -25.917,-94.083 -20.25,-96.75 1.09,0.675 16,2 33.898,19.088 18.194,19.467 109.082,118.876 115.51,132.537 8,17 -7.501,124.191 -7.091,105.125 0.409,-19.066 -8.184,78.25 39.816,133.25 C 405.742,449.034 491,442.005 508,441.124 l 5.694,-0.124 5.695,0.041 c 17,0.881 102.258,7.91 151.365,62.376 48,-55 39.408,-152.316 39.816,-133.25 0.41,19.066 -15.09,-88.125 -7.09,-105.125 6.428,-13.66 97.314,-113.069 115.51,-132.537 17.898,-17.088 32.809,-18.413 33.898,-19.088 5.666,2.667 23.332,18.334 -20.25,96.75 27,-20 59.291,-28.028 59.291,-28.028 0,0 21.459,18.278 -31.541,78.278 24,-14 51.166,-4.333 53.166,-2.333 2,2 1.334,40.333 -35.164,56.833 28.831,7.833 33.992,21.999 33.992,21.999 0,0 -5.494,27 -32.994,37.999 31,31.001 18.75,38.001 18.75,38.001 0,0 -19.75,16.999 -40.75,17.999 28.5,29.501 14.27,56.688 10.27,56.688 l -25.27,7.312 c 0,0 -2,48 -14,58 -12,10 -26,6 -26,6 l -11.416,31.201 c 0,0 23.416,3.799 27.416,9.799 4,6 4,30 -19,40 -2,37 -35,44 -35,44 0,0 -11,21 11,41 22,20 40,25 41,47 -36,11 -85.893,-63.527 -85.893,-63.527 l -29.443,-48.445 c 0,0 -10.664,-21.027 -5.664,-35.027 5,-14 20.455,-7.49 35.228,-18.744 14.772,-11.256 14.772,-20.256 13.772,-37.256 -1,-17 -16,-37 -16,-37 l -22.207,28.688 c 0,0 -26.793,24.313 -28.793,58.313 -2,34 10,63 12,85 2,22 6,47 6,47 0,0 19,9 16.625,22.109 -4.625,19.891 -19.125,46.391 -43.125,48.391 -24,2 -68.5,4.5 -68.5,4.5 l -6,55 c 0,0 -12.012,33.227 -71.49,36.721 0,0 -5.842,0.359 -9.252,0.307 -3.408,0.051 -9.157,-0.224 -9.157,-0.224 z M 469,670 c -10.564,-9.508 -47,-10 -61,-10 -26,0 -41,25.615 -43,46.615 -2,21 12,49.385 48.5,46.385 36.5,-3 42.5,-11 55.5,-21 13,-10 20,-44 0,-62 z m -74,110 c 13,10 41,8 41,8 l 7,18 c 0,0 8,-4 0,-26 -10,3 -48,0 -48,0 z m 118.694,29.469 1.289,1.859 2.406,4.338 c 2.256,3.143 6.508,6.475 11,7.225 6,1 19.666,2.359 20.666,-24.641 0.473,-12.729 -5.17,-25.527 -13.732,-36.143 -9.598,-11.904 -19.934,-20.301 -19.934,-20.301 l -1.695,-1.077 -1.694,1.162 c 0,0 -10.336,8.396 -19.935,20.3 -8.563,10.616 -14.204,23.414 -13.732,36.144 1,27 14.667,25.64 20.667,24.64 4.492,-0.749 8.744,-4.082 11,-7.224 l 2.406,-4.338 z m 44.696,-77.553 c 13,10 19,18 55.5,21 36.5,3 50.5,-25.385 48.5,-46.385 -2,-21 -17,-46.615 -43,-46.615 -14,0 -50.436,0.492 -61,10 -20,18 -13,52 0,62 z m 26,48 c -8,22 0,26 0,26 l 7,-18 c 0,0 28,2 41,-8 0,0 -38,3 -48,0 z"
   id="path14"
   inkscape:connector-curvature="0"
   style="fill:#ffc100" />
</g><g
     id="g83"
     transform="matrix(5.6828452,0,0,5.6828452,809.27596,-564.50584)"
     style="display:inline"><path
       style="color:#000000;font-style:normal;font-variant:normal;font-weight:normal;font-stretch:normal;font-size:medium;line-height:normal;font-family:Sans;-inkscape-font-specification:Sans;text-indent:0;text-align:start;text-decoration:none;text-decoration-line:none;letter-spacing:normal;word-spacing:normal;text-transform:none;writing-mode:lr-tb;direction:ltr;baseline-shift:baseline;text-anchor:start;display:inline;overflow:visible;visibility:visible;fill:url(#linearGradient5438);fill-opacity:1;stroke:none;stroke-width:5.00000048;marker:none;enable-background:accumulate"
       d="m 1244.7148,457.30273 v 29.6875 h -16.25 l 11.25,-11.25 h -85.2187 l 10,10 h 50.2187 l -5,5 h -40.2187 l 8.75,8.75 h 85.2187 v -23.75 c 0,0 -0.019,-0.87356 0.1875,-1.90625 0.2066,-1.03267 0.5983,-2.3795 1.8125,-3.59375 1.2143,-1.21426 2.5611,-1.60596 3.5938,-1.8125 0.877,-0.175 1.6875,-0.1875 1.6875,-0.1875 0,0 0.03,-0.56997 -0.062,-1.21875 -0.2842,-1.98949 -1.1026,-4.16513 -1.4688,-4.53125 -0.054,-0.0536 -2.233,-1.18045 -4.9687,-1.90625 -2.7357,-0.72578 -6.1249,-1.36698 -9.4375,-1.90625 -4.3188,-0.70306 -7.7398,-1.11193 -10.0938,-1.375 z m 65,0 c -2.354,0.26307 -5.7749,0.67194 -10.0937,1.375 -3.3126,0.53927 -6.7018,1.18047 -9.4375,1.90625 -2.7357,0.7258 -4.9151,1.85263 -4.9688,1.90625 -0.3661,0.36612 -1.1845,2.54176 -1.4687,4.53125 -0.093,0.64878 -0.051,0.67768 -0.094,1.21875 0.1505,0.002 0.7904,0.002 1.7188,0.1875 1.0327,0.20654 2.3795,0.59824 3.5937,1.8125 1.2143,1.21425 1.606,2.56108 1.8125,3.59375 0.2067,1.03269 0.1875,1.90625 0.1875,1.90625 v 23.75 h 85.2188 l 8.75,-8.75 h -40.2188 l -5,-5 h 50.2188 l 10,-10 h -85.2188 l 11.25,11.25 h -16.25 z m -126.4687,47.1875 10,10 h 53.9687 v 68.96875 l 21.25,-21.28125 v 32.53125 l 17.5,-17.5 v -10.21875 l 5,-5 v 21.46875 l 16.25,-16.25 v -52.71875 h 53.9688 l 10,-10 h -80.2188 v 45 l -5,5 v -50 h -17.5 v 45 l -5,5 v -50 z"
       id="path3885"
       inkscape:connector-curvature="0"
       transform="matrix(0.80000147,0,0,0.80000147,-1073.7868,-228.91009)" /></g></g></svg>