<?xml version="1.0" encoding="UTF-8" standalone="no"?>
<svg
   xmlns:dc="http://purl.org/dc/elements/1.1/"
   xmlns:cc="http://creativecommons.org/ns#"
   xmlns:rdf="http://www.w3.org/1999/02/22-rdf-syntax-ns#"
   xmlns:svg="http://www.w3.org/2000/svg"
   xmlns="http://www.w3.org/2000/svg"
   xmlns:xlink="http://www.w3.org/1999/xlink"
   id="svg2"
   xml:space="preserve"
   enable-background="new 0 0 1024 1024"
   viewBox="0 0 1131.8278 690.28991"
   height="690.28992"
   width="1131.8278"
   y="0px"
   x="0px"
   version="1.1"><metadata
   id="metadata20"><rdf:RDF><cc:Work
       rdf:about=""><dc:format>image/svg+xml</dc:format><dc:type
         rdf:resource="http://purl.org/dc/dcmitype/StillImage" /><dc:title></dc:title></cc:Work></rdf:RDF></metadata><defs
   id="defs18"><linearGradient
     id="linearGradient5430"><stop
       id="stop5432"
       style="stop-color:#df3323;stop-opacity:1"
       offset="0" /><stop
       id="stop5434"
       style="stop-color:#3d0000;stop-opacity:1"
       offset="1" /></linearGradient><linearGradient
     x1="134.5764"
     y1="2.2628517"
     x2="134.5764"
     y2="150.06567"
     id="linearGradient5438"
     xlink:href="#linearGradient5430"
     gradientUnits="userSpaceOnUse"
     gradientTransform="translate(1142.2157,451.99046)"
     spreadMethod="pad" /></defs>


<g
   transform="translate(52.220462,-235.66187)"
   style="display:inline"
   id="layer2"><g
     style="display:inline"
     transform="matrix(5.6828452,0,0,5.6828452,809.27596,-534.50584)"
     id="g83"><path
       d="m 1309.7148,457.30273 c -2.354,0.26307 -5.7749,0.67194 -10.0937,1.375 -3.3126,0.53927 -6.7018,1.18047 -9.4375,1.90625 -2.7357,0.7258 -4.9151,1.85263 -4.9688,1.90625 -0.3661,0.36612 -1.1845,2.54176 -1.4687,4.53125 -0.093,0.64878 -0.051,0.67768 -0.094,1.21875 0.1505,0.002 0.7904,0.002 1.7188,0.1875 1.0327,0.20654 2.3795,0.59824 3.5937,1.8125 1.2143,1.21425 1.606,2.56108 1.8125,3.59375 0.2067,1.03269 0.1875,1.90625 0.1875,1.90625 v 23.75 h 85.2188 l 8.75,-8.75 h -40.2188 l -5,-5 h 50.2188 l 10,-10 h -85.2188 l 11.25,11.25 h -16.25 z m -65,0 v 29.6875 h -16.25 l 11.25,-11.25 h -85.2187 l 10,10 h 50.2187 l -5,5 h -40.2187 l 8.75,8.75 h 85.2187 v -23.75 c 0,0 -0.019,-0.87356 0.1875,-1.90625 0.2066,-1.03267 0.5983,-2.3795 1.8125,-3.59375 1.2143,-1.21426 2.5611,-1.60596 3.5938,-1.8125 0.877,-0.175 1.6875,-0.1875 1.6875,-0.1875 0,0 0.03,-0.56997 -0.062,-1.21875 -0.2842,-1.98949 -1.1026,-4.16513 -1.4688,-4.53125 -0.054,-0.0536 -2.233,-1.18045 -4.9687,-1.90625 -2.7357,-0.72578 -6.1249,-1.36698 -9.4375,-1.90625 -4.3188,-0.70306 -7.7398,-1.11193 -10.0938,-1.375 z m 51.7322,47.18745 c -8.0907,-3.04958 -15.7365,-3.65573 -17.9795,-3.77197 l -1.2528,-0.009 -1.2523,0.0271 c -2.2387,0.11601 -9.8592,0.71961 -17.9327,3.75392 -24.9279,0 -49.8559,0 -74.7838,0 l 10,10.00001 h 11.7984 c 0.2636,3.14224 1.014,9.24065 2.9501,10.85407 2.6395,2.1996 5.7194,1.32019 5.7194,1.32019 l 2.5106,6.86258 c 0,0 -5.1506,0.83559 -6.0304,2.15535 -0.8798,1.31976 -0.8798,6.59879 4.1792,8.79839 0.44,8.13851 7.6986,9.67823 7.6986,9.67823 0,0 2.4196,4.61916 -2.4195,9.01836 -4.8391,4.39919 -8.7984,5.49899 -9.0184,10.33811 7.9186,2.41956 18.8934,-13.97304 18.8934,-13.97304 l 6.4763,-10.65602 c 0,0 2.3457,-4.62517 1.2459,-7.70461 -1.0998,-3.07944 -4.4996,-1.64731 -7.7489,-4.12296 -3.2492,-2.47564 -3.2491,-4.45547 -3.0291,-8.19479 0.2199,-3.73932 3.5193,-8.13851 3.5193,-8.13851 l 4.8847,6.3101 c 0,0 5.8933,5.34777 6.3333,12.8264 0.4399,7.47864 -2.1996,13.85747 -2.6395,18.69659 -0.44,4.83912 -1.3198,10.33811 -1.3198,10.33811 0,0 -4.1792,1.97951 -3.6568,4.86275 1.0173,4.37544 4.2067,10.2045 9.4857,10.64442 5.2791,0.43992 15.0673,0.98982 15.0673,0.98982 l 1.3197,12.09779 c 0,0 2.642,7.30854 15.7246,8.07708 0,0 1.2648,0.0606 2.0144,0.0494 0.7501,0.0114 2.0351,-0.0674 2.0351,-0.0674 13.0828,-0.76854 15.725,-8.07708 15.725,-8.07708 l 1.3197,-12.09779 c 0,0 9.7882,-0.5499 15.0673,-0.98982 5.279,-0.43992 8.4684,-6.26921 9.4857,-10.64443 0.5224,-2.88345 -3.6568,-4.86274 -3.6568,-4.86274 0,0 -0.8798,-5.499 -1.3198,-10.33811 -0.4399,-4.83912 -3.0794,-11.21796 -2.6395,-18.69659 0.4399,-7.47863 6.3333,-12.82684 6.3333,-12.82684 l 4.8847,-6.31009 c 0,0 3.2994,4.39919 3.5193,8.13851 0.22,3.73932 0.2197,5.71892 -3.0296,8.19479 -3.2494,2.47543 -6.6486,1.04352 -7.7484,4.12296 -1.0998,3.07944 1.2459,7.70461 1.2459,7.70461 l 6.4759,10.65602 c 0,0 10.9748,16.39259 18.8933,13.97303 -0.2199,-4.83911 -4.1792,-5.93891 -9.0183,-10.33811 -4.8391,-4.39919 -2.4196,-9.01835 -2.4196,-9.01835 0,0 7.2587,-1.53972 7.6986,-9.67823 5.0591,-2.1996 5.0591,-7.47864 4.1793,-8.7984 -0.8799,-1.31976 -6.0305,-2.15535 -6.0305,-2.15535 l 2.5111,-6.863 c 0,0 3.0794,0.87984 5.719,-1.31976 1.9324,-1.61038 2.6838,-7.68813 2.9488,-10.8356 h 11.7996 l 10.0001,-10.00001 z m 4.0169,44.37174 c 5.7189,0 9.0183,5.63433 9.4583,10.25348 0.4399,4.61916 -2.6396,10.86267 -10.6681,10.20279 -8.0285,-0.65988 -9.3483,-2.41956 -12.2078,-4.61916 -2.8594,-2.1996 -4.3992,-9.67823 0,-13.63751 2.3237,-2.09138 10.3381,-2.1996 13.4176,-2.1996 z m -46.4975,0.0185 c 3.0795,0 11.0939,0.10822 13.4176,2.19959 4.3992,3.95928 2.8595,11.43792 0,13.63751 -2.8595,2.1996 -4.1792,3.95928 -12.2078,4.61916 -8.0285,0.65988 -11.108,-5.58363 -10.668,-10.20279 0.4399,-4.61915 3.7393,-10.25347 9.4582,-10.25347 z m 23.2483,17.75703 0.3729,0.23714 c 0,0 2.2735,1.84696 4.3846,4.46536 1.8833,2.33509 3.1246,5.15005 3.0206,7.94991 -0.22,5.93892 -3.2259,5.63991 -4.5457,5.41995 -0.988,-0.16497 -1.9233,-0.89779 -2.4195,-1.58912 l -0.5293,-0.95416 -0.2836,-0.40899 -0.2831,0.42746 -0.5293,0.95459 c -0.4962,0.69111 -1.4315,1.42395 -2.4195,1.5887 -1.3198,0.21995 -4.3262,0.51939 -4.5461,-5.41952 -0.1039,-2.80009 1.137,-5.61525 3.0205,-7.95035 2.1114,-2.6184 4.3851,-4.46536 4.3851,-4.46536 z m 15.5506,8.61967 c 2.1996,0.65988 10.5581,0 10.5581,0 -2.8595,2.1996 -9.0184,1.75968 -9.0184,1.75968 l -1.5397,3.95928 c 0,0 -1.7597,-0.87984 0,-5.71896 z m -41.6583,0.0185 c 0,0 8.3584,0.65988 10.558,0 1.7597,4.83911 0,5.71895 0,5.71895 l -1.5397,-3.95927 c 0,0 -6.1589,0.43992 -9.0183,-1.75968 z"
       style="color:#000000;font-style:normal;font-variant:normal;font-weight:normal;font-stretch:normal;font-size:medium;line-height:normal;font-family:Sans;-inkscape-font-specification:Sans;text-indent:0;text-align:start;text-decoration:none;text-decoration-line:none;letter-spacing:normal;word-spacing:normal;text-transform:none;writing-mode:lr-tb;direction:ltr;baseline-shift:baseline;text-anchor:start;display:inline;overflow:visible;visibility:visible;opacity:1;fill:url(#linearGradient5438);fill-opacity:1;stroke:none;stroke-width:5.00000048;marker:none;enable-background:accumulate"
       transform="matrix(0.80000147,0,0,0.80000147,-1073.7868,-228.91009)"
       id="path4657" /></g><path
     id="path4652"
     d="m 513.646,412.28 c 25.258,0.029 57.41,7.971 57.41,7.971 l -5.393,-53.053 c 0,0 54.059,13.72 54.727,-32.219 2,-28 -61,-51.938 -79.25,-64.938 -18.055,-12.861 -25.584,-26.569 -25.744,-26.861 l -1.701,-2.806 -1.701,2.889 c -0.159,0.292 -7.688,14 -25.743,26.861 -18.25,13 -81.25,36.938 -79.25,64.938 0.667,45.938 54.727,32.219 54.727,32.219 l -5.393,53.053 c -10e-4,0 32.053,-8.025 57.311,-8.054 z"
     style="display:none;fill:#ffc100" /></g></svg>